<svg xmlns="http://www.w3.org/2000/svg" viewBox="0 0 768 280" width="768" height="280" font-family="Arial, Helvetica, sans-serif">
<g transform="translate(39.00,60.00)"><g id="dente-18" data-fdi="18" data-kind="molar">
<path class="raiz" d="M -11.00,0.00 L -17.00,-13.00 L -15.00,-32.00 L -11.00,-44.00 L -7.00,-32.00 L -8.00,-13.00 L -3.00,0.00 Z" fill="none" stroke="#8A8F98" stroke-width="1.4" stroke-linejoin="round" stroke-linecap="round"/>
<path class="raiz" d="M 3.00,0.00 L 8.00,-13.00 L 7.00,-32.00 L 11.00,-44.00 L 15.00,-32.00 L 17.00,-13.00 L 11.00,0.00 Z" fill="none" stroke="#8A8F98" stroke-width="1.4" stroke-linejoin="round" stroke-linecap="round"/>
<path class="coroa" d="M -16.50,0.00 C -22.25,1.45 -18.27,5.70 -18.00,8.70 C -17.73,11.70 -16.75,15.08 -14.85,17.98 C -12.95,20.88 -9.08,24.26 -6.60,26.10 C -4.12,27.94 -2.20,29.00 0.00,29.00 C 2.20,29.00 4.12,27.94 6.60,26.10 C 9.08,24.26 12.95,20.88 14.85,17.98 C 16.75,15.08 17.73,11.70 18.00,8.70 C 18.27,5.70 22.25,1.45 16.50,0.00 C 10.75,-1.45 -10.75,-1.45 -16.50,0.00 Z" fill="none" stroke="#8A8F98" stroke-width="1.4" stroke-linejoin="round"/>
<text x="0" y="43.00" text-anchor="middle" font-family="Arial, Helvetica, sans-serif" font-size="13" font-weight="600" fill="#6B7280">18</text>
</g></g>
<g transform="translate(85.00,60.00)"><g id="dente-17" data-fdi="17" data-kind="molar">
<path class="raiz" d="M -11.00,0.00 L -17.00,-13.00 L -15.00,-32.00 L -11.00,-44.00 L -7.00,-32.00 L -8.00,-13.00 L -3.00,0.00 Z" fill="none" stroke="#8A8F98" stroke-width="1.4" stroke-linejoin="round" stroke-linecap="round"/>
<path class="raiz" d="M 3.00,0.00 L 8.00,-13.00 L 7.00,-32.00 L 11.00,-44.00 L 15.00,-32.00 L 17.00,-13.00 L 11.00,0.00 Z" fill="none" stroke="#8A8F98" stroke-width="1.4" stroke-linejoin="round" stroke-linecap="round"/>
<path class="coroa" d="M -16.50,0.00 C -22.25,1.45 -18.27,5.70 -18.00,8.70 C -17.73,11.70 -16.75,15.08 -14.85,17.98 C -12.95,20.88 -9.08,24.26 -6.60,26.10 C -4.12,27.94 -2.20,29.00 0.00,29.00 C 2.20,29.00 4.12,27.94 6.60,26.10 C 9.08,24.26 12.95,20.88 14.85,17.98 C 16.75,15.08 17.73,11.70 18.00,8.70 C 18.27,5.70 22.25,1.45 16.50,0.00 C 10.75,-1.45 -10.75,-1.45 -16.50,0.00 Z" fill="none" stroke="#8A8F98" stroke-width="1.4" stroke-linejoin="round"/>
<text x="0" y="43.00" text-anchor="middle" font-family="Arial, Helvetica, sans-serif" font-size="13" font-weight="600" fill="#6B7280">17</text>
</g></g>
<g transform="translate(131.00,60.00)"><g id="dente-16" data-fdi="16" data-kind="molar">
<path class="raiz" d="M -11.00,0.00 L -17.00,-13.00 L -15.00,-32.00 L -11.00,-44.00 L -7.00,-32.00 L -8.00,-13.00 L -3.00,0.00 Z" fill="none" stroke="#8A8F98" stroke-width="1.4" stroke-linejoin="round" stroke-linecap="round"/>
<path class="raiz" d="M 3.00,0.00 L 8.00,-13.00 L 7.00,-32.00 L 11.00,-44.00 L 15.00,-32.00 L 17.00,-13.00 L 11.00,0.00 Z" fill="none" stroke="#8A8F98" stroke-width="1.4" stroke-linejoin="round" stroke-linecap="round"/>
<path class="coroa" d="M -16.50,0.00 C -22.25,1.45 -18.27,5.70 -18.00,8.70 C -17.73,11.70 -16.75,15.08 -14.85,17.98 C -12.95,20.88 -9.08,24.26 -6.60,26.10 C -4.12,27.94 -2.20,29.00 0.00,29.00 C 2.20,29.00 4.12,27.94 6.60,26.10 C 9.08,24.26 12.95,20.88 14.85,17.98 C 16.75,15.08 17.73,11.70 18.00,8.70 C 18.27,5.70 22.25,1.45 16.50,0.00 C 10.75,-1.45 -10.75,-1.45 -16.50,0.00 Z" fill="none" stroke="#8A8F98" stroke-width="1.4" stroke-linejoin="round"/>
<text x="0" y="43.00" text-anchor="middle" font-family="Arial, Helvetica, sans-serif" font-size="13" font-weight="600" fill="#6B7280">16</text>
</g></g>
<g transform="translate(177.00,60.00)"><g id="dente-15" data-fdi="15" data-kind="premolar">
<path class="raiz" d="M -9.00,0.00 L -4.50,-24.70 L -1.50,-38.00 L 1.50,-38.00 L 4.50,-24.70 L 9.00,0.00 Z" fill="none" stroke="#8A8F98" stroke-width="1.4" stroke-linejoin="round" stroke-linecap="round"/>
<path class="coroa" d="M -13.00,0.00 C -17.50,1.71 -14.32,6.72 -14.00,10.23 C -13.68,13.74 -12.47,17.98 -11.05,21.08 C -9.63,24.18 -7.30,27.18 -5.46,28.83 C -3.62,30.48 -1.82,31.00 0.00,31.00 C 1.82,31.00 3.62,30.48 5.46,28.83 C 7.30,27.18 9.63,24.18 11.05,21.08 C 12.47,17.98 13.68,13.74 14.00,10.23 C 14.32,6.72 17.50,1.71 13.00,0.00 C 8.50,-1.71 -8.50,-1.71 -13.00,0.00 Z" fill="none" stroke="#8A8F98" stroke-width="1.4" stroke-linejoin="round"/>
<text x="0" y="45.00" text-anchor="middle" font-family="Arial, Helvetica, sans-serif" font-size="13" font-weight="600" fill="#6B7280">15</text>
</g></g>
<g transform="translate(223.00,60.00)"><g id="dente-14" data-fdi="14" data-kind="premolar">
<path class="raiz" d="M -9.00,0.00 L -4.50,-24.70 L -1.50,-38.00 L 1.50,-38.00 L 4.50,-24.70 L 9.00,0.00 Z" fill="none" stroke="#8A8F98" stroke-width="1.4" stroke-linejoin="round" stroke-linecap="round"/>
<path class="coroa" d="M -13.00,0.00 C -17.50,1.71 -14.32,6.72 -14.00,10.23 C -13.68,13.74 -12.47,17.98 -11.05,21.08 C -9.63,24.18 -7.30,27.18 -5.46,28.83 C -3.62,30.48 -1.82,31.00 0.00,31.00 C 1.82,31.00 3.62,30.48 5.46,28.83 C 7.30,27.18 9.63,24.18 11.05,21.08 C 12.47,17.98 13.68,13.74 14.00,10.23 C 14.32,6.72 17.50,1.71 13.00,0.00 C 8.50,-1.71 -8.50,-1.71 -13.00,0.00 Z" fill="none" stroke="#8A8F98" stroke-width="1.4" stroke-linejoin="round"/>
<text x="0" y="45.00" text-anchor="middle" font-family="Arial, Helvetica, sans-serif" font-size="13" font-weight="600" fill="#6B7280">14</text>
</g></g>
<g transform="translate(269.00,60.00)"><g id="dente-13" data-fdi="13" data-kind="canine">
<path class="raiz" d="M -8.50,0.00 L -4.25,-36.40 L -1.50,-56.00 L 1.50,-56.00 L 4.25,-36.40 L 8.50,0.00 Z" fill="none" stroke="#8A8F98" stroke-width="1.4" stroke-linejoin="round" stroke-linecap="round"/>
<path class="coroa" d="M -10.00,0.00 C -13.50,2.34 -11.50,9.75 -11.00,14.06 C -10.50,18.37 -8.37,22.29 -7.00,25.84 C -5.63,29.39 -3.97,33.31 -2.80,35.34 C -1.63,37.37 -0.93,38.00 0.00,38.00 C 0.93,38.00 1.63,37.37 2.80,35.34 C 3.97,33.31 5.63,29.39 7.00,25.84 C 8.37,22.29 10.50,18.37 11.00,14.06 C 11.50,9.75 13.50,2.34 10.00,0.00 C 6.50,-2.34 -6.50,-2.34 -10.00,0.00 Z" fill="none" stroke="#8A8F98" stroke-width="1.4" stroke-linejoin="round"/>
<text x="0" y="52.00" text-anchor="middle" font-family="Arial, Helvetica, sans-serif" font-size="13" font-weight="600" fill="#6B7280">13</text>
</g></g>
<g transform="translate(315.00,60.00)"><g id="dente-12" data-fdi="12" data-kind="incisor">
<path class="raiz" d="M -8.00,0.00 L -4.00,-27.30 L -1.50,-42.00 L 1.50,-42.00 L 4.00,-27.30 L 8.00,0.00 Z" fill="none" stroke="#8A8F98" stroke-width="1.4" stroke-linejoin="round" stroke-linecap="round"/>
<path class="coroa" d="M -9.50,0.00 C -12.83,1.55 -10.66,5.94 -10.50,9.30 C -10.34,12.66 -9.51,16.84 -8.55,20.15 C -7.59,23.46 -6.17,27.33 -4.75,29.14 C -3.33,30.95 -1.58,31.00 0.00,31.00 C 1.58,31.00 3.33,30.95 4.75,29.14 C 6.17,27.33 7.59,23.46 8.55,20.15 C 9.51,16.84 10.34,12.66 10.50,9.30 C 10.66,5.94 12.83,1.55 9.50,0.00 C 6.17,-1.55 -6.17,-1.55 -9.50,0.00 Z" fill="none" stroke="#8A8F98" stroke-width="1.4" stroke-linejoin="round"/>
<text x="0" y="45.00" text-anchor="middle" font-family="Arial, Helvetica, sans-serif" font-size="13" font-weight="600" fill="#6B7280">12</text>
</g></g>
<g transform="translate(361.00,60.00)"><g id="dente-11" data-fdi="11" data-kind="incisor">
<path class="raiz" d="M -8.00,0.00 L -4.00,-27.30 L -1.50,-42.00 L 1.50,-42.00 L 4.00,-27.30 L 8.00,0.00 Z" fill="none" stroke="#8A8F98" stroke-width="1.4" stroke-linejoin="round" stroke-linecap="round"/>
<path class="coroa" d="M -11.00,0.00 C -14.83,1.70 -12.18,6.52 -12.00,10.20 C -11.82,13.88 -10.98,18.47 -9.90,22.10 C -8.82,25.73 -7.15,29.98 -5.50,31.96 C -3.85,33.94 -1.83,34.00 0.00,34.00 C 1.83,34.00 3.85,33.94 5.50,31.96 C 7.15,29.98 8.82,25.73 9.90,22.10 C 10.98,18.47 11.82,13.88 12.00,10.20 C 12.18,6.52 14.83,1.70 11.00,0.00 C 7.17,-1.70 -7.17,-1.70 -11.00,0.00 Z" fill="none" stroke="#8A8F98" stroke-width="1.4" stroke-linejoin="round"/>
<text x="0" y="48.00" text-anchor="middle" font-family="Arial, Helvetica, sans-serif" font-size="13" font-weight="600" fill="#6B7280">11</text>
</g></g>
<g transform="translate(407.00,60.00)"><g id="dente-21" data-fdi="21" data-kind="incisor">
<path class="raiz" d="M -8.00,0.00 L -4.00,-27.30 L -1.50,-42.00 L 1.50,-42.00 L 4.00,-27.30 L 8.00,0.00 Z" fill="none" stroke="#8A8F98" stroke-width="1.4" stroke-linejoin="round" stroke-linecap="round"/>
<path class="coroa" d="M -11.00,0.00 C -14.83,1.70 -12.18,6.52 -12.00,10.20 C -11.82,13.88 -10.98,18.47 -9.90,22.10 C -8.82,25.73 -7.15,29.98 -5.50,31.96 C -3.85,33.94 -1.83,34.00 0.00,34.00 C 1.83,34.00 3.85,33.94 5.50,31.96 C 7.15,29.98 8.82,25.73 9.90,22.10 C 10.98,18.47 11.82,13.88 12.00,10.20 C 12.18,6.52 14.83,1.70 11.00,0.00 C 7.17,-1.70 -7.17,-1.70 -11.00,0.00 Z" fill="none" stroke="#8A8F98" stroke-width="1.4" stroke-linejoin="round"/>
<text x="0" y="48.00" text-anchor="middle" font-family="Arial, Helvetica, sans-serif" font-size="13" font-weight="600" fill="#6B7280">21</text>
</g></g>
<g transform="translate(453.00,60.00)"><g id="dente-22" data-fdi="22" data-kind="incisor">
<path class="raiz" d="M -8.00,0.00 L -4.00,-27.30 L -1.50,-42.00 L 1.50,-42.00 L 4.00,-27.30 L 8.00,0.00 Z" fill="none" stroke="#8A8F98" stroke-width="1.4" stroke-linejoin="round" stroke-linecap="round"/>
<path class="coroa" d="M -9.50,0.00 C -12.83,1.55 -10.66,5.94 -10.50,9.30 C -10.34,12.66 -9.51,16.84 -8.55,20.15 C -7.59,23.46 -6.17,27.33 -4.75,29.14 C -3.33,30.95 -1.58,31.00 0.00,31.00 C 1.58,31.00 3.33,30.95 4.75,29.14 C 6.17,27.33 7.59,23.46 8.55,20.15 C 9.51,16.84 10.34,12.66 10.50,9.30 C 10.66,5.94 12.83,1.55 9.50,0.00 C 6.17,-1.55 -6.17,-1.55 -9.50,0.00 Z" fill="none" stroke="#8A8F98" stroke-width="1.4" stroke-linejoin="round"/>
<text x="0" y="45.00" text-anchor="middle" font-family="Arial, Helvetica, sans-serif" font-size="13" font-weight="600" fill="#6B7280">22</text>
</g></g>
<g transform="translate(499.00,60.00)"><g id="dente-23" data-fdi="23" data-kind="canine">
<path class="raiz" d="M -8.50,0.00 L -4.25,-36.40 L -1.50,-56.00 L 1.50,-56.00 L 4.25,-36.40 L 8.50,0.00 Z" fill="none" stroke="#8A8F98" stroke-width="1.4" stroke-linejoin="round" stroke-linecap="round"/>
<path class="coroa" d="M -10.00,0.00 C -13.50,2.34 -11.50,9.75 -11.00,14.06 C -10.50,18.37 -8.37,22.29 -7.00,25.84 C -5.63,29.39 -3.97,33.31 -2.80,35.34 C -1.63,37.37 -0.93,38.00 0.00,38.00 C 0.93,38.00 1.63,37.37 2.80,35.34 C 3.97,33.31 5.63,29.39 7.00,25.84 C 8.37,22.29 10.50,18.37 11.00,14.06 C 11.50,9.75 13.50,2.34 10.00,0.00 C 6.50,-2.34 -6.50,-2.34 -10.00,0.00 Z" fill="none" stroke="#8A8F98" stroke-width="1.4" stroke-linejoin="round"/>
<text x="0" y="52.00" text-anchor="middle" font-family="Arial, Helvetica, sans-serif" font-size="13" font-weight="600" fill="#6B7280">23</text>
</g></g>
<g transform="translate(545.00,60.00)"><g id="dente-24" data-fdi="24" data-kind="premolar">
<path class="raiz" d="M -9.00,0.00 L -4.50,-24.70 L -1.50,-38.00 L 1.50,-38.00 L 4.50,-24.70 L 9.00,0.00 Z" fill="none" stroke="#8A8F98" stroke-width="1.4" stroke-linejoin="round" stroke-linecap="round"/>
<path class="coroa" d="M -13.00,0.00 C -17.50,1.71 -14.32,6.72 -14.00,10.23 C -13.68,13.74 -12.47,17.98 -11.05,21.08 C -9.63,24.18 -7.30,27.18 -5.46,28.83 C -3.62,30.48 -1.82,31.00 0.00,31.00 C 1.82,31.00 3.62,30.48 5.46,28.83 C 7.30,27.18 9.63,24.18 11.05,21.08 C 12.47,17.98 13.68,13.74 14.00,10.23 C 14.32,6.72 17.50,1.71 13.00,0.00 C 8.50,-1.71 -8.50,-1.71 -13.00,0.00 Z" fill="none" stroke="#8A8F98" stroke-width="1.4" stroke-linejoin="round"/>
<text x="0" y="45.00" text-anchor="middle" font-family="Arial, Helvetica, sans-serif" font-size="13" font-weight="600" fill="#6B7280">24</text>
</g></g>
<g transform="translate(591.00,60.00)"><g id="dente-25" data-fdi="25" data-kind="premolar">
<path class="raiz" d="M -9.00,0.00 L -4.50,-24.70 L -1.50,-38.00 L 1.50,-38.00 L 4.50,-24.70 L 9.00,0.00 Z" fill="none" stroke="#8A8F98" stroke-width="1.4" stroke-linejoin="round" stroke-linecap="round"/>
<path class="coroa" d="M -13.00,0.00 C -17.50,1.71 -14.32,6.72 -14.00,10.23 C -13.68,13.74 -12.47,17.98 -11.05,21.08 C -9.63,24.18 -7.30,27.18 -5.46,28.83 C -3.62,30.48 -1.82,31.00 0.00,31.00 C 1.82,31.00 3.62,30.48 5.46,28.83 C 7.30,27.18 9.63,24.18 11.05,21.08 C 12.47,17.98 13.68,13.74 14.00,10.23 C 14.32,6.72 17.50,1.71 13.00,0.00 C 8.50,-1.71 -8.50,-1.71 -13.00,0.00 Z" fill="none" stroke="#8A8F98" stroke-width="1.4" stroke-linejoin="round"/>
<text x="0" y="45.00" text-anchor="middle" font-family="Arial, Helvetica, sans-serif" font-size="13" font-weight="600" fill="#6B7280">25</text>
</g></g>
<g transform="translate(637.00,60.00)"><g id="dente-26" data-fdi="26" data-kind="molar">
<path class="raiz" d="M -11.00,0.00 L -17.00,-13.00 L -15.00,-32.00 L -11.00,-44.00 L -7.00,-32.00 L -8.00,-13.00 L -3.00,0.00 Z" fill="none" stroke="#8A8F98" stroke-width="1.4" stroke-linejoin="round" stroke-linecap="round"/>
<path class="raiz" d="M 3.00,0.00 L 8.00,-13.00 L 7.00,-32.00 L 11.00,-44.00 L 15.00,-32.00 L 17.00,-13.00 L 11.00,0.00 Z" fill="none" stroke="#8A8F98" stroke-width="1.4" stroke-linejoin="round" stroke-linecap="round"/>
<path class="coroa" d="M -16.50,0.00 C -22.25,1.45 -18.27,5.70 -18.00,8.70 C -17.73,11.70 -16.75,15.08 -14.85,17.98 C -12.95,20.88 -9.08,24.26 -6.60,26.10 C -4.12,27.94 -2.20,29.00 0.00,29.00 C 2.20,29.00 4.12,27.94 6.60,26.10 C 9.08,24.26 12.95,20.88 14.85,17.98 C 16.75,15.08 17.73,11.70 18.00,8.70 C 18.27,5.70 22.25,1.45 16.50,0.00 C 10.75,-1.45 -10.75,-1.45 -16.50,0.00 Z" fill="none" stroke="#8A8F98" stroke-width="1.4" stroke-linejoin="round"/>
<text x="0" y="43.00" text-anchor="middle" font-family="Arial, Helvetica, sans-serif" font-size="13" font-weight="600" fill="#6B7280">26</text>
</g></g>
<g transform="translate(683.00,60.00)"><g id="dente-27" data-fdi="27" data-kind="molar">
<path class="raiz" d="M -11.00,0.00 L -17.00,-13.00 L -15.00,-32.00 L -11.00,-44.00 L -7.00,-32.00 L -8.00,-13.00 L -3.00,0.00 Z" fill="none" stroke="#8A8F98" stroke-width="1.4" stroke-linejoin="round" stroke-linecap="round"/>
<path class="raiz" d="M 3.00,0.00 L 8.00,-13.00 L 7.00,-32.00 L 11.00,-44.00 L 15.00,-32.00 L 17.00,-13.00 L 11.00,0.00 Z" fill="none" stroke="#8A8F98" stroke-width="1.4" stroke-linejoin="round" stroke-linecap="round"/>
<path class="coroa" d="M -16.50,0.00 C -22.25,1.45 -18.27,5.70 -18.00,8.70 C -17.73,11.70 -16.75,15.08 -14.85,17.98 C -12.95,20.88 -9.08,24.26 -6.60,26.10 C -4.12,27.94 -2.20,29.00 0.00,29.00 C 2.20,29.00 4.12,27.94 6.60,26.10 C 9.08,24.26 12.95,20.88 14.85,17.98 C 16.75,15.08 17.73,11.70 18.00,8.70 C 18.27,5.70 22.25,1.45 16.50,0.00 C 10.75,-1.45 -10.75,-1.45 -16.50,0.00 Z" fill="none" stroke="#8A8F98" stroke-width="1.4" stroke-linejoin="round"/>
<text x="0" y="43.00" text-anchor="middle" font-family="Arial, Helvetica, sans-serif" font-size="13" font-weight="600" fill="#6B7280">27</text>
</g></g>
<g transform="translate(729.00,60.00)"><g id="dente-28" data-fdi="28" data-kind="molar">
<path class="raiz" d="M -11.00,0.00 L -17.00,-13.00 L -15.00,-32.00 L -11.00,-44.00 L -7.00,-32.00 L -8.00,-13.00 L -3.00,0.00 Z" fill="none" stroke="#8A8F98" stroke-width="1.4" stroke-linejoin="round" stroke-linecap="round"/>
<path class="raiz" d="M 3.00,0.00 L 8.00,-13.00 L 7.00,-32.00 L 11.00,-44.00 L 15.00,-32.00 L 17.00,-13.00 L 11.00,0.00 Z" fill="none" stroke="#8A8F98" stroke-width="1.4" stroke-linejoin="round" stroke-linecap="round"/>
<path class="coroa" d="M -16.50,0.00 C -22.25,1.45 -18.27,5.70 -18.00,8.70 C -17.73,11.70 -16.75,15.08 -14.85,17.98 C -12.95,20.88 -9.08,24.26 -6.60,26.10 C -4.12,27.94 -2.20,29.00 0.00,29.00 C 2.20,29.00 4.12,27.94 6.60,26.10 C 9.08,24.26 12.95,20.88 14.85,17.98 C 16.75,15.08 17.73,11.70 18.00,8.70 C 18.27,5.70 22.25,1.45 16.50,0.00 C 10.75,-1.45 -10.75,-1.45 -16.50,0.00 Z" fill="none" stroke="#8A8F98" stroke-width="1.4" stroke-linejoin="round"/>
<text x="0" y="43.00" text-anchor="middle" font-family="Arial, Helvetica, sans-serif" font-size="13" font-weight="600" fill="#6B7280">28</text>
</g></g>
<g transform="translate(39.00,208.00)"><g id="dente-48" data-fdi="48" data-kind="molar">
<path class="raiz" d="M -11.00,0.00 L -17.00,-13.00 L -15.00,-32.00 L -11.00,-44.00 L -7.00,-32.00 L -8.00,-13.00 L -3.00,0.00 Z" fill="none" stroke="#8A8F98" stroke-width="1.4" stroke-linejoin="round" stroke-linecap="round"/>
<path class="raiz" d="M 3.00,0.00 L 8.00,-13.00 L 7.00,-32.00 L 11.00,-44.00 L 15.00,-32.00 L 17.00,-13.00 L 11.00,0.00 Z" fill="none" stroke="#8A8F98" stroke-width="1.4" stroke-linejoin="round" stroke-linecap="round"/>
<path class="coroa" d="M -16.50,0.00 C -22.25,1.45 -18.27,5.70 -18.00,8.70 C -17.73,11.70 -16.75,15.08 -14.85,17.98 C -12.95,20.88 -9.08,24.26 -6.60,26.10 C -4.12,27.94 -2.20,29.00 0.00,29.00 C 2.20,29.00 4.12,27.94 6.60,26.10 C 9.08,24.26 12.95,20.88 14.85,17.98 C 16.75,15.08 17.73,11.70 18.00,8.70 C 18.27,5.70 22.25,1.45 16.50,0.00 C 10.75,-1.45 -10.75,-1.45 -16.50,0.00 Z" fill="none" stroke="#8A8F98" stroke-width="1.4" stroke-linejoin="round"/>
<text x="0" y="43.00" text-anchor="middle" font-family="Arial, Helvetica, sans-serif" font-size="13" font-weight="600" fill="#6B7280">48</text>
</g></g>
<g transform="translate(85.00,208.00)"><g id="dente-47" data-fdi="47" data-kind="molar">
<path class="raiz" d="M -11.00,0.00 L -17.00,-13.00 L -15.00,-32.00 L -11.00,-44.00 L -7.00,-32.00 L -8.00,-13.00 L -3.00,0.00 Z" fill="none" stroke="#8A8F98" stroke-width="1.4" stroke-linejoin="round" stroke-linecap="round"/>
<path class="raiz" d="M 3.00,0.00 L 8.00,-13.00 L 7.00,-32.00 L 11.00,-44.00 L 15.00,-32.00 L 17.00,-13.00 L 11.00,0.00 Z" fill="none" stroke="#8A8F98" stroke-width="1.4" stroke-linejoin="round" stroke-linecap="round"/>
<path class="coroa" d="M -16.50,0.00 C -22.25,1.45 -18.27,5.70 -18.00,8.70 C -17.73,11.70 -16.75,15.08 -14.85,17.98 C -12.95,20.88 -9.08,24.26 -6.60,26.10 C -4.12,27.94 -2.20,29.00 0.00,29.00 C 2.20,29.00 4.12,27.94 6.60,26.10 C 9.08,24.26 12.95,20.88 14.85,17.98 C 16.75,15.08 17.73,11.70 18.00,8.70 C 18.27,5.70 22.25,1.45 16.50,0.00 C 10.75,-1.45 -10.75,-1.45 -16.50,0.00 Z" fill="none" stroke="#8A8F98" stroke-width="1.4" stroke-linejoin="round"/>
<text x="0" y="43.00" text-anchor="middle" font-family="Arial, Helvetica, sans-serif" font-size="13" font-weight="600" fill="#6B7280">47</text>
</g></g>
<g transform="translate(131.00,208.00)"><g id="dente-46" data-fdi="46" data-kind="molar">
<path class="raiz" d="M -11.00,0.00 L -17.00,-13.00 L -15.00,-32.00 L -11.00,-44.00 L -7.00,-32.00 L -8.00,-13.00 L -3.00,0.00 Z" fill="none" stroke="#8A8F98" stroke-width="1.4" stroke-linejoin="round" stroke-linecap="round"/>
<path class="raiz" d="M 3.00,0.00 L 8.00,-13.00 L 7.00,-32.00 L 11.00,-44.00 L 15.00,-32.00 L 17.00,-13.00 L 11.00,0.00 Z" fill="none" stroke="#8A8F98" stroke-width="1.4" stroke-linejoin="round" stroke-linecap="round"/>
<path class="coroa" d="M -16.50,0.00 C -22.25,1.45 -18.27,5.70 -18.00,8.70 C -17.73,11.70 -16.75,15.08 -14.85,17.98 C -12.95,20.88 -9.08,24.26 -6.60,26.10 C -4.12,27.94 -2.20,29.00 0.00,29.00 C 2.20,29.00 4.12,27.94 6.60,26.10 C 9.08,24.26 12.95,20.88 14.85,17.98 C 16.75,15.08 17.73,11.70 18.00,8.70 C 18.27,5.70 22.25,1.45 16.50,0.00 C 10.75,-1.45 -10.75,-1.45 -16.50,0.00 Z" fill="none" stroke="#8A8F98" stroke-width="1.4" stroke-linejoin="round"/>
<text x="0" y="43.00" text-anchor="middle" font-family="Arial, Helvetica, sans-serif" font-size="13" font-weight="600" fill="#6B7280">46</text>
</g></g>
<g transform="translate(177.00,208.00)"><g id="dente-45" data-fdi="45" data-kind="premolar">
<path class="raiz" d="M -9.00,0.00 L -4.50,-24.70 L -1.50,-38.00 L 1.50,-38.00 L 4.50,-24.70 L 9.00,0.00 Z" fill="none" stroke="#8A8F98" stroke-width="1.4" stroke-linejoin="round" stroke-linecap="round"/>
<path class="coroa" d="M -13.00,0.00 C -17.50,1.71 -14.32,6.72 -14.00,10.23 C -13.68,13.74 -12.47,17.98 -11.05,21.08 C -9.63,24.18 -7.30,27.18 -5.46,28.83 C -3.62,30.48 -1.82,31.00 0.00,31.00 C 1.82,31.00 3.62,30.48 5.46,28.83 C 7.30,27.18 9.63,24.18 11.05,21.08 C 12.47,17.98 13.68,13.74 14.00,10.23 C 14.32,6.72 17.50,1.71 13.00,0.00 C 8.50,-1.71 -8.50,-1.71 -13.00,0.00 Z" fill="none" stroke="#8A8F98" stroke-width="1.4" stroke-linejoin="round"/>
<text x="0" y="45.00" text-anchor="middle" font-family="Arial, Helvetica, sans-serif" font-size="13" font-weight="600" fill="#6B7280">45</text>
</g></g>
<g transform="translate(223.00,208.00)"><g id="dente-44" data-fdi="44" data-kind="premolar">
<path class="raiz" d="M -9.00,0.00 L -4.50,-24.70 L -1.50,-38.00 L 1.50,-38.00 L 4.50,-24.70 L 9.00,0.00 Z" fill="none" stroke="#8A8F98" stroke-width="1.4" stroke-linejoin="round" stroke-linecap="round"/>
<path class="coroa" d="M -13.00,0.00 C -17.50,1.71 -14.32,6.72 -14.00,10.23 C -13.68,13.74 -12.47,17.98 -11.05,21.08 C -9.63,24.18 -7.30,27.18 -5.46,28.83 C -3.62,30.48 -1.82,31.00 0.00,31.00 C 1.82,31.00 3.62,30.48 5.46,28.83 C 7.30,27.18 9.63,24.18 11.05,21.08 C 12.47,17.98 13.68,13.74 14.00,10.23 C 14.32,6.72 17.50,1.71 13.00,0.00 C 8.50,-1.71 -8.50,-1.71 -13.00,0.00 Z" fill="none" stroke="#8A8F98" stroke-width="1.4" stroke-linejoin="round"/>
<text x="0" y="45.00" text-anchor="middle" font-family="Arial, Helvetica, sans-serif" font-size="13" font-weight="600" fill="#6B7280">44</text>
</g></g>
<g transform="translate(269.00,208.00)"><g id="dente-43" data-fdi="43" data-kind="canine">
<path class="raiz" d="M -8.50,0.00 L -4.25,-36.40 L -1.50,-56.00 L 1.50,-56.00 L 4.25,-36.40 L 8.50,0.00 Z" fill="none" stroke="#8A8F98" stroke-width="1.4" stroke-linejoin="round" stroke-linecap="round"/>
<path class="coroa" d="M -10.00,0.00 C -13.50,2.34 -11.50,9.75 -11.00,14.06 C -10.50,18.37 -8.37,22.29 -7.00,25.84 C -5.63,29.39 -3.97,33.31 -2.80,35.34 C -1.63,37.37 -0.93,38.00 0.00,38.00 C 0.93,38.00 1.63,37.37 2.80,35.34 C 3.97,33.31 5.63,29.39 7.00,25.84 C 8.37,22.29 10.50,18.37 11.00,14.06 C 11.50,9.75 13.50,2.34 10.00,0.00 C 6.50,-2.34 -6.50,-2.34 -10.00,0.00 Z" fill="none" stroke="#8A8F98" stroke-width="1.4" stroke-linejoin="round"/>
<text x="0" y="52.00" text-anchor="middle" font-family="Arial, Helvetica, sans-serif" font-size="13" font-weight="600" fill="#6B7280">43</text>
</g></g>
<g transform="translate(315.00,208.00)"><g id="dente-42" data-fdi="42" data-kind="incisor">
<path class="raiz" d="M -8.00,0.00 L -4.00,-27.30 L -1.50,-42.00 L 1.50,-42.00 L 4.00,-27.30 L 8.00,0.00 Z" fill="none" stroke="#8A8F98" stroke-width="1.4" stroke-linejoin="round" stroke-linecap="round"/>
<path class="coroa" d="M -9.50,0.00 C -12.83,1.55 -10.66,5.94 -10.50,9.30 C -10.34,12.66 -9.51,16.84 -8.55,20.15 C -7.59,23.46 -6.17,27.33 -4.75,29.14 C -3.33,30.95 -1.58,31.00 0.00,31.00 C 1.58,31.00 3.33,30.95 4.75,29.14 C 6.17,27.33 7.59,23.46 8.55,20.15 C 9.51,16.84 10.34,12.66 10.50,9.30 C 10.66,5.94 12.83,1.55 9.50,0.00 C 6.17,-1.55 -6.17,-1.55 -9.50,0.00 Z" fill="none" stroke="#8A8F98" stroke-width="1.4" stroke-linejoin="round"/>
<text x="0" y="45.00" text-anchor="middle" font-family="Arial, Helvetica, sans-serif" font-size="13" font-weight="600" fill="#6B7280">42</text>
</g></g>
<g transform="translate(361.00,208.00)"><g id="dente-41" data-fdi="41" data-kind="incisor">
<path class="raiz" d="M -8.00,0.00 L -4.00,-27.30 L -1.50,-42.00 L 1.50,-42.00 L 4.00,-27.30 L 8.00,0.00 Z" fill="none" stroke="#8A8F98" stroke-width="1.4" stroke-linejoin="round" stroke-linecap="round"/>
<path class="coroa" d="M -11.00,0.00 C -14.83,1.70 -12.18,6.52 -12.00,10.20 C -11.82,13.88 -10.98,18.47 -9.90,22.10 C -8.82,25.73 -7.15,29.98 -5.50,31.96 C -3.85,33.94 -1.83,34.00 0.00,34.00 C 1.83,34.00 3.85,33.94 5.50,31.96 C 7.15,29.98 8.82,25.73 9.90,22.10 C 10.98,18.47 11.82,13.88 12.00,10.20 C 12.18,6.52 14.83,1.70 11.00,0.00 C 7.17,-1.70 -7.17,-1.70 -11.00,0.00 Z" fill="none" stroke="#8A8F98" stroke-width="1.4" stroke-linejoin="round"/>
<text x="0" y="48.00" text-anchor="middle" font-family="Arial, Helvetica, sans-serif" font-size="13" font-weight="600" fill="#6B7280">41</text>
</g></g>
<g transform="translate(407.00,208.00)"><g id="dente-31" data-fdi="31" data-kind="incisor">
<path class="raiz" d="M -8.00,0.00 L -4.00,-27.30 L -1.50,-42.00 L 1.50,-42.00 L 4.00,-27.30 L 8.00,0.00 Z" fill="none" stroke="#8A8F98" stroke-width="1.4" stroke-linejoin="round" stroke-linecap="round"/>
<path class="coroa" d="M -11.00,0.00 C -14.83,1.70 -12.18,6.52 -12.00,10.20 C -11.82,13.88 -10.98,18.47 -9.90,22.10 C -8.82,25.73 -7.15,29.98 -5.50,31.96 C -3.85,33.94 -1.83,34.00 0.00,34.00 C 1.83,34.00 3.85,33.94 5.50,31.96 C 7.15,29.98 8.82,25.73 9.90,22.10 C 10.98,18.47 11.82,13.88 12.00,10.20 C 12.18,6.52 14.83,1.70 11.00,0.00 C 7.17,-1.70 -7.17,-1.70 -11.00,0.00 Z" fill="none" stroke="#8A8F98" stroke-width="1.4" stroke-linejoin="round"/>
<text x="0" y="48.00" text-anchor="middle" font-family="Arial, Helvetica, sans-serif" font-size="13" font-weight="600" fill="#6B7280">31</text>
</g></g>
<g transform="translate(453.00,208.00)"><g id="dente-32" data-fdi="32" data-kind="incisor">
<path class="raiz" d="M -8.00,0.00 L -4.00,-27.30 L -1.50,-42.00 L 1.50,-42.00 L 4.00,-27.30 L 8.00,0.00 Z" fill="none" stroke="#8A8F98" stroke-width="1.4" stroke-linejoin="round" stroke-linecap="round"/>
<path class="coroa" d="M -9.50,0.00 C -12.83,1.55 -10.66,5.94 -10.50,9.30 C -10.34,12.66 -9.51,16.84 -8.55,20.15 C -7.59,23.46 -6.17,27.33 -4.75,29.14 C -3.33,30.95 -1.58,31.00 0.00,31.00 C 1.58,31.00 3.33,30.95 4.75,29.14 C 6.17,27.33 7.59,23.46 8.55,20.15 C 9.51,16.84 10.34,12.66 10.50,9.30 C 10.66,5.94 12.83,1.55 9.50,0.00 C 6.17,-1.55 -6.17,-1.55 -9.50,0.00 Z" fill="none" stroke="#8A8F98" stroke-width="1.4" stroke-linejoin="round"/>
<text x="0" y="45.00" text-anchor="middle" font-family="Arial, Helvetica, sans-serif" font-size="13" font-weight="600" fill="#6B7280">32</text>
</g></g>
<g transform="translate(499.00,208.00)"><g id="dente-33" data-fdi="33" data-kind="canine">
<path class="raiz" d="M -8.50,0.00 L -4.25,-36.40 L -1.50,-56.00 L 1.50,-56.00 L 4.25,-36.40 L 8.50,0.00 Z" fill="none" stroke="#8A8F98" stroke-width="1.4" stroke-linejoin="round" stroke-linecap="round"/>
<path class="coroa" d="M -10.00,0.00 C -13.50,2.34 -11.50,9.75 -11.00,14.06 C -10.50,18.37 -8.37,22.29 -7.00,25.84 C -5.63,29.39 -3.97,33.31 -2.80,35.34 C -1.63,37.37 -0.93,38.00 0.00,38.00 C 0.93,38.00 1.63,37.37 2.80,35.34 C 3.97,33.31 5.63,29.39 7.00,25.84 C 8.37,22.29 10.50,18.37 11.00,14.06 C 11.50,9.75 13.50,2.34 10.00,0.00 C 6.50,-2.34 -6.50,-2.34 -10.00,0.00 Z" fill="none" stroke="#8A8F98" stroke-width="1.4" stroke-linejoin="round"/>
<text x="0" y="52.00" text-anchor="middle" font-family="Arial, Helvetica, sans-serif" font-size="13" font-weight="600" fill="#6B7280">33</text>
</g></g>
<g transform="translate(545.00,208.00)"><g id="dente-34" data-fdi="34" data-kind="premolar">
<path class="raiz" d="M -9.00,0.00 L -4.50,-24.70 L -1.50,-38.00 L 1.50,-38.00 L 4.50,-24.70 L 9.00,0.00 Z" fill="none" stroke="#8A8F98" stroke-width="1.4" stroke-linejoin="round" stroke-linecap="round"/>
<path class="coroa" d="M -13.00,0.00 C -17.50,1.71 -14.32,6.72 -14.00,10.23 C -13.68,13.74 -12.47,17.98 -11.05,21.08 C -9.63,24.18 -7.30,27.18 -5.46,28.83 C -3.62,30.48 -1.82,31.00 0.00,31.00 C 1.82,31.00 3.62,30.48 5.46,28.83 C 7.30,27.18 9.63,24.18 11.05,21.08 C 12.47,17.98 13.68,13.74 14.00,10.23 C 14.32,6.72 17.50,1.71 13.00,0.00 C 8.50,-1.71 -8.50,-1.71 -13.00,0.00 Z" fill="none" stroke="#8A8F98" stroke-width="1.4" stroke-linejoin="round"/>
<text x="0" y="45.00" text-anchor="middle" font-family="Arial, Helvetica, sans-serif" font-size="13" font-weight="600" fill="#6B7280">34</text>
</g></g>
<g transform="translate(591.00,208.00)"><g id="dente-35" data-fdi="35" data-kind="premolar">
<path class="raiz" d="M -9.00,0.00 L -4.50,-24.70 L -1.50,-38.00 L 1.50,-38.00 L 4.50,-24.70 L 9.00,0.00 Z" fill="none" stroke="#8A8F98" stroke-width="1.4" stroke-linejoin="round" stroke-linecap="round"/>
<path class="coroa" d="M -13.00,0.00 C -17.50,1.71 -14.32,6.72 -14.00,10.23 C -13.68,13.74 -12.47,17.98 -11.05,21.08 C -9.63,24.18 -7.30,27.18 -5.46,28.83 C -3.62,30.48 -1.82,31.00 0.00,31.00 C 1.82,31.00 3.62,30.48 5.46,28.83 C 7.30,27.18 9.63,24.18 11.05,21.08 C 12.47,17.98 13.68,13.74 14.00,10.23 C 14.32,6.72 17.50,1.71 13.00,0.00 C 8.50,-1.71 -8.50,-1.71 -13.00,0.00 Z" fill="none" stroke="#8A8F98" stroke-width="1.4" stroke-linejoin="round"/>
<text x="0" y="45.00" text-anchor="middle" font-family="Arial, Helvetica, sans-serif" font-size="13" font-weight="600" fill="#6B7280">35</text>
</g></g>
<g transform="translate(637.00,208.00)"><g id="dente-36" data-fdi="36" data-kind="molar">
<path class="raiz" d="M -11.00,0.00 L -17.00,-13.00 L -15.00,-32.00 L -11.00,-44.00 L -7.00,-32.00 L -8.00,-13.00 L -3.00,0.00 Z" fill="none" stroke="#8A8F98" stroke-width="1.4" stroke-linejoin="round" stroke-linecap="round"/>
<path class="raiz" d="M 3.00,0.00 L 8.00,-13.00 L 7.00,-32.00 L 11.00,-44.00 L 15.00,-32.00 L 17.00,-13.00 L 11.00,0.00 Z" fill="none" stroke="#8A8F98" stroke-width="1.4" stroke-linejoin="round" stroke-linecap="round"/>
<path class="coroa" d="M -16.50,0.00 C -22.25,1.45 -18.27,5.70 -18.00,8.70 C -17.73,11.70 -16.75,15.08 -14.85,17.98 C -12.95,20.88 -9.08,24.26 -6.60,26.10 C -4.12,27.94 -2.20,29.00 0.00,29.00 C 2.20,29.00 4.12,27.94 6.60,26.10 C 9.08,24.26 12.95,20.88 14.85,17.98 C 16.75,15.08 17.73,11.70 18.00,8.70 C 18.27,5.70 22.25,1.45 16.50,0.00 C 10.75,-1.45 -10.75,-1.45 -16.50,0.00 Z" fill="none" stroke="#8A8F98" stroke-width="1.4" stroke-linejoin="round"/>
<text x="0" y="43.00" text-anchor="middle" font-family="Arial, Helvetica, sans-serif" font-size="13" font-weight="600" fill="#6B7280">36</text>
</g></g>
<g transform="translate(683.00,208.00)"><g id="dente-37" data-fdi="37" data-kind="molar">
<path class="raiz" d="M -11.00,0.00 L -17.00,-13.00 L -15.00,-32.00 L -11.00,-44.00 L -7.00,-32.00 L -8.00,-13.00 L -3.00,0.00 Z" fill="none" stroke="#8A8F98" stroke-width="1.4" stroke-linejoin="round" stroke-linecap="round"/>
<path class="raiz" d="M 3.00,0.00 L 8.00,-13.00 L 7.00,-32.00 L 11.00,-44.00 L 15.00,-32.00 L 17.00,-13.00 L 11.00,0.00 Z" fill="none" stroke="#8A8F98" stroke-width="1.4" stroke-linejoin="round" stroke-linecap="round"/>
<path class="coroa" d="M -16.50,0.00 C -22.25,1.45 -18.27,5.70 -18.00,8.70 C -17.73,11.70 -16.75,15.08 -14.85,17.98 C -12.95,20.88 -9.08,24.26 -6.60,26.10 C -4.12,27.94 -2.20,29.00 0.00,29.00 C 2.20,29.00 4.12,27.94 6.60,26.10 C 9.08,24.26 12.95,20.88 14.85,17.98 C 16.75,15.08 17.73,11.70 18.00,8.70 C 18.27,5.70 22.25,1.45 16.50,0.00 C 10.75,-1.45 -10.75,-1.45 -16.50,0.00 Z" fill="none" stroke="#8A8F98" stroke-width="1.4" stroke-linejoin="round"/>
<text x="0" y="43.00" text-anchor="middle" font-family="Arial, Helvetica, sans-serif" font-size="13" font-weight="600" fill="#6B7280">37</text>
</g></g>
<g transform="translate(729.00,208.00)"><g id="dente-38" data-fdi="38" data-kind="molar">
<path class="raiz" d="M -11.00,0.00 L -17.00,-13.00 L -15.00,-32.00 L -11.00,-44.00 L -7.00,-32.00 L -8.00,-13.00 L -3.00,0.00 Z" fill="none" stroke="#8A8F98" stroke-width="1.4" stroke-linejoin="round" stroke-linecap="round"/>
<path class="raiz" d="M 3.00,0.00 L 8.00,-13.00 L 7.00,-32.00 L 11.00,-44.00 L 15.00,-32.00 L 17.00,-13.00 L 11.00,0.00 Z" fill="none" stroke="#8A8F98" stroke-width="1.4" stroke-linejoin="round" stroke-linecap="round"/>
<path class="coroa" d="M -16.50,0.00 C -22.25,1.45 -18.27,5.70 -18.00,8.70 C -17.73,11.70 -16.75,15.08 -14.85,17.98 C -12.95,20.88 -9.08,24.26 -6.60,26.10 C -4.12,27.94 -2.20,29.00 0.00,29.00 C 2.20,29.00 4.12,27.94 6.60,26.10 C 9.08,24.26 12.95,20.88 14.85,17.98 C 16.75,15.08 17.73,11.70 18.00,8.70 C 18.27,5.70 22.25,1.45 16.50,0.00 C 10.75,-1.45 -10.75,-1.45 -16.50,0.00 Z" fill="none" stroke="#8A8F98" stroke-width="1.4" stroke-linejoin="round"/>
<text x="0" y="43.00" text-anchor="middle" font-family="Arial, Helvetica, sans-serif" font-size="13" font-weight="600" fill="#6B7280">38</text>
</g></g>
</svg>