<svg xmlns="http://www.w3.org/2000/svg" viewBox="-23.0 -62 46 117" width="90" height="228">
<g id="dente-37" data-fdi="37" data-kind="molar">
<path class="raiz" d="M -11.00,0.00 L -17.00,-13.00 L -15.00,-32.00 L -11.00,-44.00 L -7.00,-32.00 L -8.00,-13.00 L -3.00,0.00 Z" fill="none" stroke="#8A8F98" stroke-width="1.4" stroke-linejoin="round" stroke-linecap="round"/>
<path class="raiz" d="M 3.00,0.00 L 8.00,-13.00 L 7.00,-32.00 L 11.00,-44.00 L 15.00,-32.00 L 17.00,-13.00 L 11.00,0.00 Z" fill="none" stroke="#8A8F98" stroke-width="1.4" stroke-linejoin="round" stroke-linecap="round"/>
<path class="coroa" d="M -16.50,0.00 C -22.25,1.45 -18.27,5.70 -18.00,8.70 C -17.73,11.70 -16.75,15.08 -14.85,17.98 C -12.95,20.88 -9.08,24.26 -6.60,26.10 C -4.12,27.94 -2.20,29.00 0.00,29.00 C 2.20,29.00 4.12,27.94 6.60,26.10 C 9.08,24.26 12.95,20.88 14.85,17.98 C 16.75,15.08 17.73,11.70 18.00,8.70 C 18.27,5.70 22.25,1.45 16.50,0.00 C 10.75,-1.45 -10.75,-1.45 -16.50,0.00 Z" fill="none" stroke="#8A8F98" stroke-width="1.4" stroke-linejoin="round"/>
<text x="0" y="43.00" text-anchor="middle" font-family="Arial, Helvetica, sans-serif" font-size="13" font-weight="600" fill="#6B7280">37</text>
</g>
</svg>
