<svg xmlns="http://www.w3.org/2000/svg" width="512" height="512" viewBox="0 0 64 64" fill="none">
  <ellipse cx="16" cy="26" rx="12" ry="9.5" fill="#f3e6c4" />
  <ellipse cx="48" cy="26" rx="12" ry="9.5" fill="#f3e6c4" />
  <path
    d="M32 21c11 0 17.5 9 17.5 19S43 55 32 55 14.5 51 14.5 40 21 21 32 21Z"
    fill="#2b2a28"
  />
  <path d="M17 36c5-1.3 25-1.3 30 0" stroke="#c9a24b" stroke-width="5" stroke-linecap="round" />
  <path d="M16 45c5-1.3 27-1.3 32 0" stroke="#c9a24b" stroke-width="5" stroke-linecap="round" />
  <circle cx="26.5" cy="17" r="2.6" fill="#2b2a28" />
  <circle cx="37.5" cy="17" r="2.6" fill="#2b2a28" />
  <path d="M26.5 17c-2-5-5-7.5-8-8.5" stroke="#2b2a28" stroke-width="2.2" stroke-linecap="round" />
  <path d="M37.5 17c2-5 5-7.5 8-8.5" stroke="#2b2a28" stroke-width="2.2" stroke-linecap="round" />
</svg>
